PathFileType	4	(X/Y/Z)	72_2_79_p1_0-358_filt_butterworth.trc
DataRate	CameraRate	NumFrames	NumMarkers	Units	OrigDataRate	OrigDataStartFrame	OrigNumFrames
59.0	59.0	6	27	m	59.0	89	358
Frame#	Time	RHip			RKnee			RAnkle			RBigToe			RSmallToe			RHeel			LHip			LKnee			LAnkle			LBigToe			LSmallToe			LHeel			Neck			Head			Nose			RShoulder			RElbow			RWrist			RThumb			RIndex			RPinky			LShoulder			LElbow			LWrist			LThumb			LIndex			LPinky			
		X1	Y1	Z1	X2	Y2	Z2	X3	Y3	Z3	X4	Y4	Z4	X5	Y5	Z5	X6	Y6	Z6	X7	Y7	Z7	X8	Y8	Z8	X9	Y9	Z9	X10	Y10	Z10	X11	Y11	Z11	X12	Y12	Z12	X13	Y13	Z13	X14	Y14	Z14	X15	Y15	Z15	X16	Y16	Z16	X17	Y17	Z17	X18	Y18	Z18	X19	Y19	Z19	X20	Y20	Z20	X21	Y21	Z21	X22	Y22	Z22	X23	Y23	Z23	X24	Y24	Z24	X25	Y25	Z25	X26	Y26	Z26	X27	Y27	Z27	
89	1.5084745762711864	0.2156214273571524	0.5632082995287878	0.6348643759403526	0.2234037817309572	0.609935976475939	1.0480433625145853	0.21147944385018708	0.6478508890521151	1.4486808484641691	0.143014569266891	0.42231375858567455	1.4557617608494404	0.22234964254772516	0.42335775587047064	1.4343857410827054	0.19448810503511466	0.7499901895392063	1.553850834095236	-0.016331565999076765	0.6104353849455392	0.6298921333067575	-0.013948293460283676	0.6389330499458924	1.0402424680339513	-0.009416520294460686	0.6576548496766866	1.4351259083068841	-0.005489404183327732	0.45533996026196843	1.4398928253849268	-0.06273484172168416	0.508311417282487	1.4571474225406187	0.004170052313355059	0.737433697468409	1.5026749229348806	0.10172827587259699	0.6184732219686823	-0.012648807296695328	0.061451865346131035	0.5508149476913095	-0.2813661287144975	0.061588161141549226	0.46442660894536497	-0.14031701664038393	0.26648305719202703	0.5460298268274068	0.07607923416924717	0.36243752571535975	0.5572425320732576	0.31942109436941757	0.24092483686326518	0.34016501425015433	0.40270181324652055	0.14184866626781836	0.23422185060959014	0.4224348476378802	0.1429199740167995	0.2137084406424566	0.4389982644598198	0.19746427275191122	0.25835044045029176	0.47557488332269654	-0.06773291755570157	0.6554362917821883	0.07919320375622022	-0.13463002414148023	0.6606380757332615	0.3323030166276499	-0.117917235546622	0.4147638909438811	0.40556743886336616	-0.05264945632712986	0.2910785555167213	0.402492915856425	-0.07643446749512539	0.2466730865534303	0.41855000385091545	-0.11029072641607846	0.3006084385266289	0.47154027806385335
90	1.5254237288135593	0.21552934930763618	0.5634438195162743	0.6345176584338603	0.22320220859308226	0.6096320803338845	1.046811949598142	0.21153266058646447	0.6475982114172059	1.4484133055392447	0.1440003626882877	0.42502615901602064	1.4585655387947885	0.2223936674646142	0.4233488580371202	1.4344921777021447	0.19455100901790076	0.7496514726127624	1.5548124119151994	-0.016284512799452613	0.6103888022656385	0.6297955785002548	-0.01395359133281586	0.638879691183277	1.0401985058952774	-0.00941416604848254	0.6576811745819526	1.4351413878077626	-0.006398510013336321	0.4587673820596505	1.4418684993752733	-0.0627158498944573	0.508244620786836	1.457075191199131	0.005102344290191432	0.7332901591985598	1.499868798686007	0.10176640897806499	0.6185797801067898	-0.012225838103532522	0.061791713708102984	0.5454070148156894	-0.281769607168807	0.06179066107607436	0.46424123917377275	-0.14020593085075284	0.26621577689326215	0.5460731107876845	0.07610699388972318	0.3597589839878178	0.5596466818637483	0.31995086996464855	0.2441796806759969	0.34379291190100864	0.4037205927890561	0.14303789888092294	0.23197899427169985	0.41999138187123786	0.14348143575130753	0.21011770181549277	0.43763461765227774	0.19752321681942714	0.2582341353171904	0.47549624510720395	-0.06757030732772132	0.6555681677821659	0.07926312193828317	-0.1346389544314617	0.6610243177273413	0.33257884034785723	-0.11897132685598527	0.41892715899891175	0.40637808448161394	-0.058264060242126735	0.297858043375011	0.4010774521129834	-0.08402952996136355	0.25262002763071295	0.4163957507452226	-0.11056162833576869	0.3004240561594664	0.46976474987601896
91	1.5423728813559323	0.21544725444210516	0.5635946206496784	0.6336490424675336	0.22321619021998815	0.6094888675823784	1.0463437574719179	0.21157382527488552	0.647197476123416	1.448174100806109	0.1444885521739442	0.42630696008954394	1.4598992507459323	0.2222049217334837	0.4234115717545304	1.4350946767155668	0.19454239720974456	0.7495210938821126	1.5551252832200755	-0.01617076706192828	0.6107241142062801	0.6301186384956444	-0.013956914828131661	0.6387732742824224	1.0401581652787601	-0.009410110487150476	0.657662936572288	1.4351442059507415	-0.006620586883946768	0.4587629468209318	1.4417798889620221	-0.06271088609049703	0.5081982291857218	1.4570279328507802	0.005558189452568036	0.72885213267537	1.4989212314657017	0.10184744031665016	0.6188149580835346	-0.011166615755490331	0.0631813197420302	0.54234229164795	-0.2814537816696955	0.06174999690849915	0.464252989996589	-0.13866106567513103	0.26642678697262223	0.5463303624475753	0.07627212250741686	0.3585985312761989	0.5639690359404206	0.320250177810922	0.2469915129548228	0.3466489812365836	0.40452594447602735	0.14364438200030033	0.228744563211694	0.418909475895208	0.1438295828124624	0.20723207885194173	0.43683895551486784	0.19750034780919754	0.25792196906840664	0.4754048621807009	-0.06744887393851928	0.6557334855616833	0.07928412291703546	-0.13459316680317598	0.661478668396959	0.33284353288384794	-0.11982670635445837	0.42199580853274893	0.4073858974417987	-0.0648810051667834	0.3020902666298281	0.39941085523617365	-0.0914031251583979	0.25845331234677993	0.4147760625312512	-0.11051292915276371	0.29991377396743096	0.4684371211666717
92	1.5593220338983051	0.21555713941302745	0.5636590006725988	0.6325319837123157	0.22339341757113046	0.609441958838372	1.0463459328101539	0.21154027106294226	0.6471876749949685	1.4483575932273527	0.14464556913141213	0.42673708466632054	1.460238438457617	0.22187663716475947	0.4234952962178294	1.4363735177106705	0.19446238601600246	0.7494857837439631	1.5551338661723846	-0.016085003681059817	0.611181128924836	0.6300653741822635	-0.013938810678926704	0.6386682702944901	1.0401173703312452	-0.009406161741281557	0.6575834608722547	1.435129148051018	-0.006154437931679505	0.45533802699878345	1.4396451780723292	-0.06271477604307543	0.5081894217866793	1.456982192116453	0.00574593534472068	0.7267155440455076	1.499023416196898	0.10195228895219677	0.6191208697132015	-0.009785066454773603	0.06449924071022493	0.5416554713085779	-0.2805238956068894	0.061666904970052984	0.4641990216398064	-0.13637903012642794	0.2670464232537271	0.5466694478641921	0.07649524277228081	0.35820404867098987	0.5692801417989922	0.3201942013640034	0.24856772640796557	0.34792962430203145	0.40489344060163435	0.14390449063121216	0.2258684192281716	0.41851315944096107	0.14391091529882066	0.20588209426474308	0.43648681767739583	0.19757942571189163	0.2577761415873156	0.4752991824910949	-0.06735576006000107	0.6559674949087859	0.07921639118880948	-0.13413011826428517	0.6621683372117569	0.33191011340676047	-0.1202853391842244	0.42317019616571794	0.4077864151482018	-0.07127673229527356	0.30460646758045223	0.39871416578994134	-0.09702541187617239	0.26320391432150314	0.4140910450862179	-0.11041820041677966	0.2993572450434256	0.46730522529541846
93	1.576271186440678	0.21617448296440708	0.5637155176045143	0.6317615930759279	0.22356124708121403	0.6094017194780376	1.046420515189927	0.21130333664256296	0.6488810752486175	1.4495227211613557	0.1446105279198961	0.426633759368785	1.460072160161489	0.2216144929905368	0.42351742346882704	1.437874272171069	0.19444154048593873	0.7494475699370193	1.5553642511850154	-0.01598862844847212	0.6115023635160597	0.6296489441057348	-0.013899126655096013	0.638604077435614	1.040072596691922	-0.0094110830258316	0.6574661353814055	1.4351052135242828	-0.005342382702335337	0.45054346824518954	1.4367206123967566	-0.06271530723580314	0.5081730720546217	1.4569208302048597	0.005661295282137974	0.7263384117788432	1.4993041542249113	0.10203122433371581	0.6193611335194398	-0.008750946975519687	0.0650829740847314	0.5421065098915752	-0.2793662551002796	0.06162604324465054	0.4641209011436992	-0.13457908117232498	0.2677046664886638	0.5468959069571873	0.07643360883634108	0.3580507341003306	0.5733187078261335	0.32014740946339537	0.24900414760969575	0.3481360687338721	0.40493986252040065	0.1439753904638278	0.2243988958675991	0.41775925120453283	0.14388965000779286	0.20571371380697537	0.4360832697584611	0.19770204954430462	0.2576656706060435	0.47516505914449736	-0.06739707466433863	0.6558710128740238	0.07902025369167402	-0.13297273359115042	0.6632327588069499	0.33009401359806356	-0.12039219101698784	0.4233554541178142	0.4071438865663622	-0.0765953067359447	0.3073933329274858	0.3986262847646356	-0.10079207281937688	0.2661069768967323	0.4139249690146038	-0.11036819019369017	0.2996505536886113	0.46613344229055786
94	1.5932203389830508	0.217505064404449	0.5637758066552715	0.6315139150732741	0.22352146727054328	0.6093276982782062	1.0463919002822664	0.21074419140080503	0.653260799885685	1.4520510126238393	0.14405637628178591	0.4253096207580618	1.4591156692722358	0.22156862586554776	0.4234262942802085	1.4385756494727766	0.19479923642735553	0.7493721361713543	1.5561253375234716	-0.01588124540243011	0.6116027055072526	0.6293305843562333	-0.013858042758242367	0.6385500828817933	1.0400118953734894	-0.009426633940616191	0.6573972678830432	1.4350802535297664	-0.0050656315246292456	0.4470655777703273	1.4346304861663521	-0.06271527790064421	0.5081085405341705	1.4568732696524156	0.004803285094167799	0.7262507013967981	1.4994485479360735	0.10206297522512411	0.619465814902063	-0.008356016819121195	0.06512726504640652	0.5425847016570091	-0.27855349605360574	0.06163062804004134	0.46404618222558236	-0.13384111373855356	0.2679974557877691	0.5468785085737922	0.0756581490868047	0.3579810917552493	0.5750319319062376	0.3207483740663121	0.24894428065199758	0.3480507259394314	0.40488779550053705	0.1439035348148605	0.22394349086081483	0.4161596521163628	0.14410046531752235	0.206488087855826	0.43540783164464014	0.19762033261602815	0.25720738467480236	0.47494880514546867	-0.06787685602674963	0.6545586277105013	0.07879107740874465	-0.13145198931137658	0.6644263275050684	0.32838749985750065	-0.12034869227530264	0.4234192663589522	0.40592841481709896	-0.08060941546561366	0.3107898487380305	0.39833325265636355	-0.10307216277003417	0.268081062268994	0.4135981152552312	-0.11033231537177156	0.30230863487481024	0.46519872137202134
